<?xml version="1.0" encoding="UTF-8" standalone="no"?>
<!-- Created with Inkscape (http://www.inkscape.org/) -->

<svg
   version="1.1"
   id="svg1"
   width="27.735645"
   height="27.735645"
   viewBox="0 0 27.735645 27.735645"
   xmlns="http://www.w3.org/2000/svg"
   xmlns:svg="http://www.w3.org/2000/svg">
  <defs
     id="defs1" />
  <g
     id="g1">
    <path
       style="fill:#ffffff"
       d="M 7.5147865,27.718465 C 4.6440747,27.527073 2.0702878,25.788387 0.80678943,23.186971 0.34952181,22.245503 0.09387301,21.276185 0.01813799,20.196722 c -0.0242338,-0.345409 -0.0242338,-12.3089793 0,-12.6543879 C 0.05518509,7.0142955 0.12293541,6.5796574 0.24302851,6.0995952 0.72142538,4.1872434 1.9025527,2.5026343 3.5451223,1.3899105 4.7532134,0.57151485 6.0838705,0.11622625 7.5491602,0.01991605 c 0.3840788,-0.025245 12.2535658,-0.025245 12.6376448,0 1.871024,0.1229782 3.576351,0.8542621 4.957451,2.12587035 0.877975,0.8083706 1.588679,1.8445501 2.02498,2.9523439 0.318195,0.8079154 0.489817,1.5752466 0.548613,2.4528712 0.02365,0.3530581 0.02384,12.2801605 1.95e-4,12.6370525 -0.150766,2.275944 -1.234802,4.357889 -3.007158,5.775399 -1.309406,1.047249 -2.849203,1.644909 -4.524377,1.756101 -0.313836,0.02083 -12.3584586,0.0198 -12.6717225,-0.0011 z M 20.402532,25.565148 c 1.225981,-0.169 2.243313,-0.619325 3.152386,-1.395413 1.024898,-0.874968 1.735916,-2.133278 1.960922,-3.470305 0.08242,-0.489763 0.07912,-0.20508 0.07912,-6.821235 0,-6.7063327 0.0042,-6.380241 -0.0886,-6.8905738 C 25.327105,6.0016995 24.923719,5.1175718 24.292326,4.3267327 24.096951,4.0820203 23.655489,3.6405578 23.410778,3.4451856 22.528409,2.7407187 21.516184,2.3157623 20.381815,2.1735543 c -0.233474,-0.029269 -0.598381,-0.031004 -6.5225,-0.031004 -5.989344,0 -6.2862442,0.00145 -6.5178763,0.031836 C 6.1983922,2.3243316 5.1969494,2.7460711 4.3251873,3.4446263 4.079379,3.641596 3.6381418,4.0831129 3.4436397,4.3267327 2.721661,5.2310334 2.2920762,6.2727322 2.1640284,7.429658 c -0.034021,0.3073809 -0.034021,12.572359 0,12.87974 0.2365625,2.137368 1.5423119,3.927964 3.4959368,4.794036 0.538597,0.238768 1.1960008,0.412794 1.75948,0.465765 0.1096425,0.01031 0.2266522,0.02143 0.2600217,0.02472 0.033369,0.0033 2.8611051,0.0049 6.2838571,0.0035 5.778813,-0.0023 6.238611,-0.0046 6.439208,-0.03227 z m -6.855243,-4.234712 c -0.248177,-0.01526 -0.565109,-0.04535 -0.726804,-0.069 C 11.569837,21.078501 10.395912,20.591648 9.4042773,19.844663 9.0716236,19.594079 8.9040509,19.447281 8.580501,19.123014 7.3614464,17.901254 6.6290282,16.359136 6.437767,14.611453 c -0.039675,-0.362538 -0.039675,-1.121313 0,-1.483851 0.1879186,-1.71714 0.8982854,-3.2377065 2.081957,-4.4565076 1.2532138,-1.2904072 2.886466,-2.0692813 4.698204,-2.240505 0.289974,-0.027405 1.010136,-0.027405 1.300109,0 1.820161,0.1720197 3.458398,0.9568167 4.71506,2.2587478 2.1914,2.2703428 2.723151,5.6441688 1.334217,8.4652788 -0.590055,1.19848 -1.523639,2.249654 -2.643486,2.976444 -1.0146,0.658483 -2.180023,1.062869 -3.384344,1.174319 -0.20772,0.01922 -0.831048,0.03496 -0.992195,0.02506 z m 0.9527,-2.165261 c 2.335931,-0.274531 4.215978,-2.049079 4.618752,-4.359569 0.06162,-0.353504 0.07679,-0.538325 0.07679,-0.936078 0,-0.397754 -0.01516,-0.582575 -0.07679,-0.936078 -0.152458,-0.874572 -0.52596,-1.703743 -1.082407,-2.402939 C 17.856981,10.305149 17.423381,9.8717371 17.201423,9.6959624 16.432064,9.0866877 15.556227,8.7164725 14.561374,8.5800159 c -0.380991,-0.052258 -1.005792,-0.052258 -1.386782,0 -1.228186,0.168461 -2.287525,0.698336 -3.130737,1.5659751 -0.8433367,0.867768 -1.3288177,1.902584 -1.4825773,3.160156 -0.027335,0.223566 -0.027335,0.903195 0,1.126761 0.1584563,1.295985 0.6909326,2.395988 1.5736793,3.250945 0.947122,0.917306 2.079214,1.415818 3.438334,1.514056 0.174087,0.01258 0.698818,-0.006 0.926698,-0.03273 z M 21.659965,7.454373 C 20.733044,7.3284282 20.101329,6.4236454 20.308501,5.5187186 20.446406,4.9163468 20.907706,4.45693 21.525841,4.3063484 c 0.158304,-0.038564 0.52598,-0.038564 0.684284,0 0.409369,0.099725 0.756853,0.3356482 0.980783,0.6658995 0.212399,0.3132446 0.307491,0.6946686 0.265421,1.0646324 -0.06726,0.5914958 -0.450128,1.0968044 -0.996337,1.3149613 -0.24481,0.097778 -0.548533,0.1367028 -0.800027,0.1025314 z"
       id="path1" />
  </g>
</svg>
