<?xml version="1.0" encoding="UTF-8" standalone="no"?>
<!-- Created with Inkscape (http://www.inkscape.org/) -->

<svg
   version="1.1"
   id="svg1"
   width="199.94684"
   height="195.26776"
   viewBox="0 0 199.94683 195.26776"
   xmlns="http://www.w3.org/2000/svg"
   xmlns:svg="http://www.w3.org/2000/svg">
  <defs
     id="defs1" />
  <g
     id="g1"
     transform="translate(17.003066,-93.555903)">
    <path
       style="fill:#ffffff;stroke-width:0.212178"
       d="m -17.003066,288.82367 c 0.494849,-1.64875 11.7504081,-34.94015 11.7504081,-34.94015 l 5.32121785,-11.96063 -2.13446035,-4.26485 c -6.6324205,-13.25221 -9.7549156,-23.23746 -11.3322486,-36.23876 -0.471221,-3.88408 -0.648746,-13.0359 -0.33338,-17.18639 0.753345,-9.91466 3.016158,-19.78389 6.6890933,-29.17442 1.3724647,-3.50896 5.2637411,-11.32304 7.26494326,-14.58876 C 13.104223,119.44837 32.640885,104.47619 56.462849,97.369179 c 7.600957,-2.267657 14.484044,-3.446772 21.796561,-3.733881 5.291868,-0.207772 15.226074,0.012 19.420011,0.429635 4.133509,0.411612 12.006089,2.192225 17.504659,3.959187 29.38341,9.44234 53.29073,33.10641 62.87242,62.2327 3.25344,9.88976 4.56682,17.44925 4.84757,27.90136 0.43628,16.24226 -2.72111,31.13235 -9.58318,45.19384 -10.76649,22.0623 -29.66068,39.51825 -52.56367,48.56251 -12.83932,5.07017 -26.431112,7.32004 -40.403559,6.68809 -13.891716,-0.6283 -26.78605,-3.92357 -40.077231,-10.24214 -1.872077,-0.88997 -3.517601,-1.65271 -3.646606,-1.61814 -18.776474,5.03114 -29.4918026,7.24967 -53.63289,12.08133 z M 92.287858,272.81438 c 17.475332,-1.66137 33.441452,-8.45354 46.649282,-19.84512 3.08115,-2.65746 7.94663,-7.7209 10.5508,-10.98008 8.96183,-11.21595 14.76871,-24.35465 16.94596,-38.34203 1.23262,-7.91878 1.09931,-18.56912 -0.33596,-26.84048 -4.01471,-23.13653 -18.17461,-43.66666 -38.70291,-56.11447 -10.10427,-6.12696 -20.76329,-9.73726 -33.322629,-11.28667 -4.271257,-0.52693 -15.178626,-0.53065 -19.308165,-0.007 -19.314471,2.45113 -36.149449,10.80089 -49.543479,24.57243 -12.453374,12.80437 -20.2999575,28.91086 -22.6931197,46.58162 -1.6082535,11.8751 -0.3676721,24.69559 3.4827707,35.99184 2.2992458,6.74543 6.621147,15.39036 10.683097,21.36899 l 0.937015,1.37916 -2.324824,6.78968 c -5.3265755,15.55635 -7.8259366,23.06784 -7.7130986,23.18067 0.2027209,0.20273 9.4173046,-2.53703 19.4316696,-5.77757 2.275605,-0.73636 5.883955,-1.88332 8.018554,-2.54881 l 3.881089,-1.20997 3.545128,2.01335 c 6.152838,3.49431 9.875401,5.20462 15.427075,7.08789 6.333363,2.14844 13.102963,3.53171 20.369054,4.16212 2.51951,0.2186 10.990547,0.11229 14.022691,-0.17597 z M 107.65177,236.7615 c -5.94563,-1.26101 -15.165289,-4.28523 -21.562973,-7.07306 -14.006885,-6.1036 -27.213053,-17.69076 -38.385532,-33.67969 -6.128223,-8.77009 -9.51518,-15.58847 -10.591061,-21.32112 -0.828696,-4.41557 -0.514062,-10.30185 0.753441,-14.09565 1.44166,-4.31508 5.065179,-9.80424 7.900466,-11.96817 2.367043,-1.80657 3.750407,-2.1611 8.402818,-2.15348 3.500793,0.006 4.494258,0.17184 5.257172,0.87898 0.988782,0.91649 4.253763,8.08927 8.337185,18.31582 1.537838,3.85136 1.923666,5.02605 1.83344,5.58206 -0.228993,1.41112 -2.411465,4.70151 -6.080018,9.1665 -0.719115,0.87524 -1.507015,1.99253 -1.750888,2.48288 l -0.443407,0.89153 0.813118,1.64524 c 2.938257,5.94516 10.869113,14.90192 18.130392,20.47567 3.442931,2.64279 10.006166,6.29408 14.575405,8.10866 2.126114,0.84434 3.107605,0.94995 3.904814,0.42018 1.11581,-0.74149 3.543438,-3.28852 6.139128,-6.44106 1.48931,-1.80882 3.25375,-3.8026 3.92099,-4.43063 1.21162,-1.14044 1.21458,-1.14174 2.33436,-1.02616 1.5471,0.15967 2.98299,0.76472 11.15141,4.69891 9.47743,4.56466 11.63496,5.73319 11.9121,6.45168 0.82536,2.13972 0.0175,8.12015 -1.58103,11.70476 -2.05272,4.60297 -8.25796,8.85213 -15.84769,10.85201 -2.94421,0.7758 -6.85171,0.996 -9.12364,0.51414 z"
       id="path1" />
  </g>
</svg>
